<?xml version="1.0" encoding="UTF-8"?>
<svg id="Capa_2" data-name="Capa 2" xmlns="http://www.w3.org/2000/svg" viewBox="0 0 199.96 171.47">
  <defs>
    <style>
      .cls-1 {
        fill: #c29613;
        fill-rule: evenodd;
      }
    </style>
  </defs>
  <g id="Capa_1-2" data-name="Capa 1">
    <path class="cls-1" d="M135.74,130.65c.4.93,1.4,2.36,2.23,3.03,1.64-.38,10.63-4.2,11.55-5-1.29-1.09-2.41-1.88-3.63-2.77-2.61.59-6.9,3.78-10.14,4.74M105.56,140.8v26.21c-.06.05-.15.04-.18.14-.03.09-.14.11-.18.13-.04.03-.13.09-.18.13l-1.06.64c-.51.3-1.1.68-1.54.96l-.03,2.12,14.42.04c.38-2.7-.14-2.27-.91-2.74-.98-.6-1.54-.97-2.59-1.34l-.1-26.29c.19-.9,1.45-1.36,2.31-1.79,1.65-.83,1.41-.6,1.3-2.72h-15.1c-.08,2.27.11,1.75,2.63,3.35.22.14.43.24.67.47.5.47.23.04.53.69ZM3.32,166.95c-1.27.71-2.09,1.36-3.28,2.05l-.03,2.15h27.01s-.02-9.37-.02-9.37l-3.19-1.07-2.65,6.55c-1.6.23-8.6.33-9.98-.06v-26.58c1.06-.89,2.61-1.61,3.72-2.41l-.03-1.8-14.85-.13c-.26,4.08,3.12,2.14,3.37,5.05l-.06,25.61ZM137.99,139.57c-7.42,1.29-7.98,10.94-7.2,16.59.93,6.75,4.3,12.93,12.11,11.47,6.7-1.25,7.81-9.18,7.16-16.64-.61-6.95-4.38-12.76-12.07-11.43ZM34.78,140.52l.08,26.49c-1.01.66-1.61.95-2.57,1.47-1.32.72-1.15.76-1.05,2.61l28.11.07-.04-9.18-2.46-.67-2.83,6-10.68-.03.03-12.29,7.03.08,1.13,3.63,2.84.25v-11.44s-2.28-.15-2.28-.15l-1.38,3.66-7.32.16v-11.03s9.89-.04,9.89-.04l1.71,4.46,3.22.49.52-8.79-27.53.08c-.01,1.87-.06,1.71,1.28,2.52.85.52,1.66,1.01,2.3,1.65ZM94.95,168.38l-.09-10.67,3.44-1.89-.1-1.84-15.35-.06.08,1.8,4.04,2.01-.02,8.62c-3.31,2.29-9.44,1.67-12.38-2.66-2.56-3.76-3.28-9.64-2.49-14.76,1.81-11.72,11.99-10.21,15.48-7.75,1.42,1,2.98,2.96,3.85,5.18l3.07-.19.08-8.76c-5.79-2.21-16.97-2.53-22.29.16-5.72,2.88-8.99,8.36-8.93,16.75.06,7.86,4.2,13.76,9.87,15.81,7.19,2.59,15.16.58,21.74-1.76ZM166.11,140.84l.21,25.92c-.94.38-1.64,1.03-2.45,1.54-1.3.81-1.32,1.2-1.05,2.89l12.16-.03c.42-2.74-.14-1.95-4.05-4.82l-.23-21.45,20.47,26.22,4.62.03.66-30.62c1.18-.9,2.45-1.6,3.51-2.11l-.05-2.11h-12.48c0,2.08.06,1.82,1.51,2.75.92.59,1.91,1.06,2.58,1.68l-.25,19.43s-.11-.11-.16-.16c-.35-.37-.41-.48-.64-.78-.55-.72-.77-1.07-1.19-1.62-.88-1.16-1.38-1.85-2.33-3.02l-9.36-12.09c-1.25-1.64-4.06-4.71-4.72-6.2h-10.66c-.1,2.36-.27,1.9,1.45,2.89.99.57,1.78,1.07,2.46,1.68ZM137.99,135.61c-11.42,1.87-16.75,9.06-15.77,20.4.91,10.66,8.73,16.76,20.56,15.22,10.13-1.32,16.79-8.77,15.76-20.25-1.06-11.8-10.66-17-20.54-15.38Z"/>
    <path class="cls-1" d="M52.49,14.35c-.53,11.89-.04,24.93-.04,36.95,0,11.93-.16,22.66,5.44,31.83,2.57,4.21,4.91,7.64,8.03,10.56.8.75,1.35,1.52,2.17,2.35,2.1,2.13,5.26,4.73,7.61,6.49,3.72,2.78,21.07,12.8,24.21,12.95,3.08.14,21.07-10.6,24.29-12.8,1.97-1.35,3.38-2.65,5.12-4.18,4.6-4.06,9.83-9.56,12.7-15.2,5.72-11.26,5.54-17.95,5.54-31.71,0-12.33.28-24.96-.01-37.24-3.35-.98-6.82-2.34-10.44-3.36-24.07-6.79-49.87-6.81-73.96-.1-3.81,1.06-7.12,2.45-10.64,3.47M46.41,10.44c-.3,2.33-.09,38.04-.09,41.42-.02,14.28.19,23.89,6.63,34.81,5.37,9.09,12.02,15.65,20.05,21.37,3.96,2.83,8.11,5.43,12.84,8.03,1.96,1.08,12.42,6.6,14.06,6.68,1.12.06,12.35-5.67,13.92-6.5,4.86-2.56,17.6-10.87,21.42-14.94,3.76-4.02,3.08-2.75,7.49-8.28,10.32-12.94,10.84-23.34,10.86-40.89,0-6.95.02-13.9,0-20.85-.02-6.72.31-14.15-.04-20.78-3.91-2.71-18.85-6.46-24.21-7.59-20.2-4.27-38.37-3.46-58.45-.06-4.93.84-21.39,5.26-24.48,7.58Z"/>
    <path class="cls-1" d="M119.79,68.19l18.53.09-9.36-23.34-9.17,23.26ZM61.5,68.33h18.49s-9.07-23.25-9.07-23.25c-.68.54-9.34,22.9-9.41,23.25ZM72.53,40.01c-.05-.05-.1-.22-.11-.17-.27.72.16-1.11-1.63-1.74-2.42-.85-3.96.73-3.38,2.83.29,1.05,1.05,1.26,1.69,1.92-.68,2.95-7.77,20.11-9.6,24.47-3.39,8.09,14.22,12.54,21.05,5.26,3.27-3.48,1.52-4.81-.21-9.35-1.37-3.6-7.17-17.37-7.67-19.7,3.76-.68,9.17-.65,13.11-.81,9.2-.38,32.82-.41,41.31.77l-7.54,19.6c-1.87,4.52-3.39,6.3-.37,9.49,4,4.22,14.91,5.16,19.86-.43,2.75-3.1,1.41-4.08-.75-9.68-1.1-2.86-7.56-18.28-7.71-19.63,4.04-2.87,1-5.81-1.65-4.76-.79.31-.53.17-.96.73l-.77,1.17c-7.5-1.09-12.95-2.26-20.95-2.92-4.56-.37-1.48-1.72-6.37-1.88-5.27-.17-2.77,1.52-6.17,1.81-2.49.21-4.92.49-7.39.77-4.84.54-9.18,1.38-13.79,2.26Z"/>
    <path class="cls-1" d="M95.85,80.24c1.46.41,6.43.24,8.24.11l-1.01-35.21-6.55-.15-.69,35.24Z"/>
    <path class="cls-1" d="M96.47,18.54l-8.21.57c1.06.96,2.04,1.83,3.27,2.76,1.09.82,2.28,1.62,3.3,2.66l-1.9,7.83c1.55-.54,5.97-3.99,6.96-3.99.73,0,5.54,3.57,7.1,4.06l-2.13-7.89c1.75-1.58,5.52-4.3,6.33-5.4l-8.42-1.15-.62-1.38c-.23-.65-.48-1.3-.77-2.04-.5-1.28-.96-2.92-1.61-4.02-1.23,2.53-2.08,5.71-3.29,8"/>
    <path class="cls-1" d="M80.61,94.28h38.35c-.06-.06-.16-.24-.2-.19-.41.62.18-.05-.96-.71-.35-.2-.72-.37-1.1-.58-1.99-1.09-5.94-3.43-7.51-3.51-5.09-.25-11.8,0-17.21,0-4.01,0-5.46,1.82-9.9,3.95l-1.47,1.04Z"/>
    <path class="cls-1" d="M90.71,87.76l18.18-.08c-.28-1.82-1.01-3.77-2.11-4.95l-12.26-.05c-2.06,0-2.81.22-3.8,5.08"/>
  </g>
</svg>